<svg width="100" height="100" viewBox="0 0 100 100" fill="none" xmlns="http://www.w3.org/2000/svg">
  <defs>
    <!-- Sunset gradient matching original -->
    <linearGradient id="sunsetGradient" x1="0%" y1="0%" x2="100%" y2="100%">
      <stop offset="0%" style="stop-color:#F97316;stop-opacity:1" />
      <stop offset="50%" style="stop-color:#FF8C42;stop-opacity:1" />
      <stop offset="100%" style="stop-color:#EF4444;stop-opacity:1" />
    </linearGradient>
    <!-- Ground gradient -->
    <linearGradient id="groundGradient" x1="0%" y1="100%" x2="0%" y2="0%">
      <stop offset="0%" style="stop-color:#8B4513;stop-opacity:1" />
      <stop offset="100%" style="stop-color:#A0522D;stop-opacity:1" />
    </linearGradient>
    <!-- Tree shadow for definition -->
    <filter id="glow" x="-50%" y="-50%" width="200%" height="200%">
      <feGaussianBlur in="SourceGraphic" stdDeviation="3" result="blur" />
      <feMerge>
        <feMergeNode in="blur" />
        <feMergeNode in="SourceGraphic" />
      </feMerge>
    </filter>
    <!-- Texture filter -->
    <filter id="texture" x="-50%" y="-50%" width="200%" height="200%">
      <feTurbulence baseFrequency="0.9" numOctaves="4" result="noise" />
      <feColorMatrix in="noise" type="saturate" values="0" />
      <feComponentTransfer>
        <feFuncA type="discrete" tableValues="0 .5 0 .5 0 .5 0 .5 0 .5 0 .5 0 .5 0 .5 0 .5 0 .5 0 .5 0 .5 0 .5 0 .5 0 .5 0 .5"/>
      </feComponentTransfer>
    </filter>
  </defs>
  
  <!-- Circular background with sunset gradient -->
  <rect x="0" y="0" width="100" height="100" rx="20" ry="20" fill="url(#sunsetGradient)" filter="url(#texture)"/>
  
  <!-- Dark circle for contrast -->
  <circle cx="50" cy="50" r="40" fill="#1a202c" filter="url(#glow)"/>
  
  <!-- Horizon lines -->
  <path d="M15 60 Q30 55 50 58 T85 60" stroke="#8B4513" stroke-width="1" fill="none" opacity="0.6"/>
  <path d="M20 65 Q35 62 50 65 T80 65" stroke="#8B4513" stroke-width="1" fill="none" opacity="0.4"/>
  
  <!-- Baobab tree trunk -->
  <rect x="47" y="35" width="6" height="30" fill="#4A2C2A" rx="2"/>
  
  <!-- Baobab tree branches - sparse and characteristic -->
  <path d="M47 40 Q35 35 30 45" stroke="#4A2C2A" stroke-width="2" fill="none"/>
  <path d="M53 40 Q65 35 70 45" stroke="#4A2C2A" stroke-width="2" fill="none"/>
  <path d="M47 45 Q40 30 35 50" stroke="#4A2C2A" stroke-width="1.5" fill="none"/>
  <path d="M53 45 Q60 30 65 50" stroke="#4A2C2A" stroke-width="1.5" fill="none"/>
  <path d="M50 35 Q45 20 40 40" stroke="#4A2C2A" stroke-width="1" fill="none"/>
  <path d="M50 35 Q55 20 60 40" stroke="#4A2C2A" stroke-width="1" fill="none"/>
  
  <!-- Baobab canopy - dense reddish-brown mass -->
  <circle cx="50" cy="25" r="12" fill="#8B4513" opacity="0.9"/>
  <circle cx="45" cy="20" r="8" fill="#8B4513" opacity="0.8"/>
  <circle cx="55" cy="20" r="8" fill="#8B4513" opacity="0.8"/>
  <circle cx="50" cy="15" r="6" fill="#8B4513" opacity="0.9"/>
  
  <!-- Additional canopy details -->
  <circle cx="40" cy="25" r="5" fill="#8B4513" opacity="0.7"/>
  <circle cx="60" cy="25" r="5" fill="#8B4513" opacity="0.7"/>
</svg>