<svg width="100" height="100" viewBox="0 0 100 100" fill="none" xmlns="http://www.w3.org/2000/svg">
  <defs>
    <!-- Sunset gradient matching the clean image -->
    <linearGradient id="sunsetGradient" x1="0%" y1="100%" x2="0%" y2="0%">
      <stop offset="0%" style="stop-color:#F97316;stop-opacity:1" />
      <stop offset="50%" style="stop-color:#FF8C42;stop-opacity:1" />
      <stop offset="100%" style="stop-color:#EF4444;stop-opacity:1" />
    </linearGradient>
  </defs>
  
  <!-- Main circular logo -->
  <circle cx="50" cy="50" r="45" stroke="#4A2C2A" stroke-width="2" fill="none"/>
  <circle cx="50" cy="50" r="43" fill="url(#sunsetGradient)"/>
  
  <!-- Horizon lines -->
  <path d="M20 60 Q35 55 50 57 T80 60" stroke="#4A2C2A" stroke-width="1" fill="none" opacity="0.6"/>
  <path d="M25 65 Q40 60 50 62 T75 65" stroke="#4A2C2A" stroke-width="0.8" fill="none" opacity="0.4"/>
  
  <!-- Authentic Baobab Tree Design -->
  <!-- Main trunk - thick and characteristic -->
  <path d="M45 80 L55 80 L55 45 C55 40 58 35 50 35 C42 35 45 40 45 45 L45 80 Z" fill="#4A2C2A"/>
  
  <!-- Secondary trunk sections for gnarled appearance -->
  <path d="M47 80 L53 80 L53 50 C53 48 54 46 50 46 C46 46 47 48 47 50 L47 80 Z" fill="#4A2C2A" opacity="0.8"/>
  <path d="M46 80 L54 80 L54 55 C54 53 55 51 50 51 C45 51 46 53 46 55 L46 80 Z" fill="#4A2C2A" opacity="0.6"/>
  
  <!-- Proper Baobab Branches - straight and sparse -->
  <!-- Left branch -->
  <path d="M45 45 L35 40" stroke="#4A2C2A" stroke-width="3" fill="none"/>
  <path d="M45 45 L38 35" stroke="#4A2C2A" stroke-width="2" fill="none"/>
  
  <!-- Right branch -->
  <path d="M55 45 L65 40" stroke="#4A2C2A" stroke-width="3" fill="none"/>
  <path d="M55 45 L62 35" stroke="#4A2C2A" stroke-width="2" fill="none"/>
  
  <!-- Upper branches -->
  <path d="M50 35 L45 25" stroke="#4A2C2A" stroke-width="2" fill="none"/>
  <path d="M50 35 L55 25" stroke="#4A2C2A" stroke-width="2" fill="none"/>
  
  <!-- Lower side branches -->
  <path d="M45 50 L38 55" stroke="#4A2C2A" stroke-width="2" fill="none"/>
  <path d="M55 50 L62 55" stroke="#4A2C2A" stroke-width="2" fill="none"/>
  
  <!-- Dense reddish-brown canopy clusters -->
  <!-- Main canopy -->
  <circle cx="50" cy="25" r="18" fill="#4A2C2A" opacity="0.9"/>
  
  <!-- Left canopy cluster -->
  <circle cx="35" cy="20" r="14" fill="#4A2C2A" opacity="0.8"/>
  <circle cx="30" cy="25" r="10" fill="#4A2C2A" opacity="0.7"/>
  <circle cx="38" cy="15" r="8" fill="#4A2C2A" opacity="0.8"/>
  
  <!-- Right canopy cluster -->
  <circle cx="65" cy="20" r="14" fill="#4A2C2A" opacity="0.8"/>
  <circle cx="70" cy="25" r="10" fill="#4A2C2A" opacity="0.7"/>
  <circle cx="62" cy="15" r="8" fill="#4A2C2A" opacity="0.8"/>
  
  <!-- Top canopy cluster -->
  <circle cx="50" cy="10" r="12" fill="#4A2C2A" opacity="0.9"/>
  <circle cx="45" cy="8" r="8" fill="#4A2C2A" opacity="0.8"/>
  <circle cx="55" cy="8" r="8" fill="#4A2C2A" opacity="0.8"/>
  
  <!-- Additional canopy details -->
  <circle cx="42" cy="30" r="6" fill="#4A2C2A" opacity="0.7"/>
  <circle cx="58" cy="30" r="6" fill="#4A2C2A" opacity="0.7"/>
  <circle cx="50" cy="35" r="5" fill="#4A2C2A" opacity="0.6"/>
</svg>