<svg width="100" height="100" viewBox="0 0 100 100" fill="none" xmlns="http://www.w3.org/2000/svg">
  <defs>
    <!-- Sunset gradient matching the image -->
    <linearGradient id="sunsetGradientCircle" x1="0%" y1="100%" x2="0%" y2="0%">
      <stop offset="0%" style="stop-color:#F97316;stop-opacity:1" />
      <stop offset="50%" style="stop-color:#FF8C42;stop-opacity:1" />
      <stop offset="100%" style="stop-color:#EF4444;stop-opacity:1" />
    </linearGradient>
    
    <!-- Texture filter for vintage look -->
    <filter id="grainyTextureCircle">
      <feTurbulence type="fractalNoise" baseFrequency="0.8" numOctaves="4" result="noise" />
      <feDiffuseLighting in="noise" lightingColor="white" surfaceScale="3">
        <feDistantLight azimuth="225" elevation="45" />
      </feDiffuseLighting>
      <feComposite in="SourceGraphic" in2="diffuseLighting" operator="arithmetic" k1="1" k2="0" k3="0" k4="0" />
    </filter>
  </defs>
  
  <!-- Main circular logo -->
  <circle cx="50" cy="50" r="48" stroke="#4A2C2A" stroke-width="2" fill="none"/>
  <circle cx="50" cy="50" r="46" fill="url(#sunsetGradientCircle)" filter="url(#grainyTextureCircle)"/>
  
  <!-- Horizon lines -->
  <path d="M15 60 Q30 50 50 55 T85 60" stroke="#4A2C2A" stroke-width="1" fill="none" opacity="0.6" filter="url(#grainyTextureCircle)"/>
  <path d="M20 65 Q35 55 50 60 T80 65" stroke="#4A2C2A" stroke-width="0.8" fill="none" opacity="0.4" filter="url(#grainyTextureCircle)"/>
  
  <!-- Baobab Tree -->
  <!-- Trunk -->
  <path d="M48 70 L52 70 L52 50 C52 45 55 40 50 40 C45 40 48 45 48 50 L48 70 Z" fill="#4A2C2A" filter="url(#grainyTextureCircle)"/>
  
  <!-- Branches - sparse and characteristic -->
  <path d="M50 40 C45 35 40 38 40 45 C40 38 45 30 50 30 C55 30 60 38 60 45 C60 38 55 35 50 40 Z" fill="#4A2C2A" filter="url(#grainyTextureCircle)"/>
  <path d="M50 40 C55 35 60 38 60 45 C60 38 65 30 70 30 C75 30 80 38 80 45 C80 38 75 35 70 40 Z" fill="#4A2C2A" filter="url(#grainyTextureCircle)"/>
  <path d="M40 45 C35 40 30 43 30 50 C30 43 35 35 40 35 C45 35 50 43 50 50 C50 43 45 40 40 45 Z" fill="#4A2C2A" filter="url(#grainyTextureCircle)"/>
  <path d="M60 45 C55 40 50 43 50 50 C50 43 45 35 40 35 C35 35 30 43 30 50 C30 43 35 40 40 45 Z" fill="#4A2C2A" filter="url(#grainyTextureCircle)"/>
  
  <!-- Dense reddish-brown canopy -->
  <circle cx="50" cy="30" r="12" fill="#4A2C2A" opacity="0.9" filter="url(#grainyTextureCircle)"/>
  <circle cx="45" cy="25" r="8" fill="#4A2C2A" opacity="0.8" filter="url(#grainyTextureCircle)"/>
  <circle cx="55" cy="25" r="8" fill="#4A2C2A" opacity="0.8" filter="url(#grainyTextureCircle)"/>
  <circle cx="50" cy="20" r="6" fill="#4A2C2A" opacity="0.9" filter="url(#grainyTextureCircle)"/>
  <circle cx="40" cy="30" r="5" fill="#4A2C2A" opacity="0.7" filter="url(#grainyTextureCircle)"/>
  <circle cx="60" cy="30" r="5" fill="#4A2C2A" opacity="0.7" filter="url(#grainyTextureCircle)"/>
</svg>