<svg width="32" height="32" viewBox="0 0 32 32" fill="none" xmlns="http://www.w3.org/2000/svg">
  <defs>
    <!-- Sunset gradient matching original -->
    <linearGradient id="sunsetGradientFavicon" x1="0%" y1="100%" x2="0%" y2="0%">
      <stop offset="0%" style="stop-color:#F97316;stop-opacity:1" />
      <stop offset="50%" style="stop-color:#FF8C42;stop-opacity:1" />
      <stop offset="100%" style="stop-color:#EF4444;stop-opacity:1" />
    </linearGradient>
    
    <!-- Texture filter for vintage look -->
    <filter id="grainyTextureFavicon">
      <feTurbulence type="fractalNoise" baseFrequency="0.6" numOctaves="3" result="noise" />
      <feDiffuseLighting in="noise" lightingColor="white" surfaceScale="2">
        <feDistantLight azimuth="225" elevation="45" />
      </feDiffuseLighting>
      <feComposite in="SourceGraphic" in2="diffuseLighting" operator="arithmetic" k1="1" k2="0" k3="0" k4="0" />
    </filter>
  </defs>
  
  <!-- Main circular logo -->
  <circle cx="16" cy="16" r="15" fill="url(#sunsetGradientFavicon)" filter="url(#grainyTextureFavicon)"/>
  
  <!-- Horizon lines -->
  <path d="M5 19 Q10 17 16 18 T27 19 L27 28 L5 28 Z" fill="#4A2C2A" opacity="0.1" filter="url(#grainyTextureFavicon)"/>
  <path d="M6 21 Q11 19 16 20 T26 21 L26 26 L6 26 Z" fill="#4A2C2A" opacity="0.15" filter="url(#grainyTextureFavicon)"/>
  
  <!-- Baobab Tree -->
  <!-- Trunk -->
  <path d="M15 22 L17 22 L17 15 C17 13 18 11 16 11 C14 11 15 13 15 15 L15 22 Z" fill="#4A2C2A" filter="url(#grainyTextureFavicon)"/>
  
  <!-- Branches - sparse and characteristic -->
  <path d="M16 11 C14 9 12 10 12 13 C12 10 14 7 16 7 C18 7 20 10 20 13 C20 10 18 9 16 11 Z" fill="#4A2C2A" filter="url(#grainyTextureFavicon)"/>
  <path d="M16 11 C18 9 20 10 20 13 C20 10 22 7 24 7 C26 7 28 10 28 13 C28 10 26 9 24 11 Z" fill="#4A2C2A" filter="url(#grainyTextureFavicon)"/>
  <path d="M12 13 C10 11 8 12 8 15 C8 12 10 9 12 9 C14 9 16 12 16 15 C16 12 14 11 12 13 Z" fill="#4A2C2A" filter="url(#grainyTextureFavicon)"/>
  <path d="M20 13 C18 11 16 12 16 15 C16 12 14 9 12 9 C10 9 8 12 8 15 C8 12 10 11 12 13 Z" fill="#4A2C2A" filter="url(#grainyTextureFavicon)"/>
  
  <!-- Dense reddish-brown canopy -->
  <circle cx="16" cy="9" r="4" fill="#8B4513" opacity="0.9" filter="url(#grainyTextureFavicon)"/>
  <circle cx="14" cy="7" r="2" fill="#8B4513" opacity="0.8" filter="url(#grainyTextureFavicon)"/>
  <circle cx="18" cy="7" r="2" fill="#8B4513" opacity="0.8" filter="url(#grainyTextureFavicon)"/>
  <circle cx="16" cy="5" r="2" fill="#8B4513" opacity="0.9" filter="url(#grainyTextureFavicon)"/>
</svg>