<svg width="32" height="32" viewBox="0 0 32 32" fill="none" xmlns="http://www.w3.org/2000/svg">
  <defs>
    <!-- Sunset gradient matching original -->
    <linearGradient id="sunsetGradient" x1="0%" y1="0%" x2="100%" y2="100%">
      <stop offset="0%" style="stop-color:#F97316;stop-opacity:1" />
      <stop offset="50%" style="stop-color:#FF8C42;stop-opacity:1" />
      <stop offset="100%" style="stop-color:#EF4444;stop-opacity:1" />
    </linearGradient>
    <!-- Tree shadow for definition -->
    <filter id="glow" x="-50%" y="-50%" width="200%" height="200%">
      <feGaussianBlur in="SourceGraphic" stdDeviation="1" result="blur" />
      <feMerge>
        <feMergeNode in="blur" />
        <feMergeNode in="SourceGraphic" />
      </feMerge>
    </filter>
    <!-- Texture filter -->
    <filter id="texture" x="-50%" y="-50%" width="200%" height="200%">
      <feTurbulence baseFrequency="0.9" numOctaves="4" result="noise" />
      <feColorMatrix in="noise" type="saturate" values="0" />
      <feComponentTransfer>
        <feFuncA type="discrete" tableValues="0 .5 0 .5 0 .5 0 .5 0 .5 0 .5 0 .5 0 .5 0 .5 0 .5 0 .5 0 .5 0 .5 0 .5 0 .5 0 .5"/>
      </feComponentTransfer>
    </filter>
  </defs>
  
  <!-- Circular background with sunset gradient -->
  <rect x="0" y="0" width="32" height="32" rx="6" ry="6" fill="url(#sunsetGradient)" filter="url(#texture)"/>
  
  <!-- Dark circle for contrast -->
  <circle cx="16" cy="16" r="12" fill="#1a202c" filter="url(#glow)"/>
  
  <!-- Horizon lines -->
  <path d="M6 19 Q10 18 16 18 T26 19" stroke="#8B4513" stroke-width="0.4" fill="none" opacity="0.6"/>
  <path d="M8 20 Q12 19 16 19 T24 20" stroke="#8B4513" stroke-width="0.4" fill="none" opacity="0.4"/>
  
  <!-- Baobab tree trunk -->
  <rect x="15" y="11" width="2" height="10" fill="#4A2C2A" rx="0.5"/>
  
  <!-- Baobab tree branches - sparse and characteristic -->
  <path d="M15 12 Q11 11 9 14" stroke="#4A2C2A" stroke-width="0.6" fill="none"/>
  <path d="M17 12 Q21 11 23 14" stroke="#4A2C2A" stroke-width="0.6" fill="none"/>
  <path d="M15 13 Q13 9 11 16" stroke="#4A2C2A" stroke-width="0.5" fill="none"/>
  <path d="M17 13 Q19 9 21 16" stroke="#4A2C2A" stroke-width="0.5" fill="none"/>
  
  <!-- Baobab canopy - dense reddish-brown mass -->
  <circle cx="16" cy="8" r="4" fill="#8B4513" opacity="0.9"/>
  <circle cx="14" cy="6" r="2.5" fill="#8B4513" opacity="0.8"/>
  <circle cx="18" cy="6" r="2.5" fill="#8B4513" opacity="0.8"/>
  <circle cx="16" cy="5" r="2" fill="#8B4513" opacity="0.9"/>
  
  <!-- Additional canopy details -->
  <circle cx="12" cy="8" r="1.5" fill="#8B4513" opacity="0.7"/>
  <circle cx="20" cy="8" r="1.5" fill="#8B4513" opacity="0.7"/>
</svg>